<svg width="512" height="512" viewBox="0 0 512 512" fill="none" xmlns="http://www.w3.org/2000/svg">
<path d="M110.984 34.1797C169.68 83.8257 232.824 184.474 256 238.486V381.145C256 378.109 254.96 381.54 252.72 388.933C240.624 428.959 193.376 585.173 85.336 460.289C28.448 394.538 54.784 328.786 158.336 308.935C99.096 320.289 32.496 301.525 14.224 227.958C8.96 206.796 0 76.4422 0 58.8365C0 -29.3532 68.632 -1.63335 110.984 34.1797ZM401.016 34.1797C342.32 83.8257 279.176 184.474 256 238.486V381.145C256 378.109 257.04 381.54 259.28 388.933C271.376 428.959 318.624 585.173 426.664 460.289C483.552 394.538 457.216 328.786 353.664 308.935C412.904 320.289 479.504 301.525 497.776 227.958C503.04 206.796 512 76.4422 512 58.8365C512 -29.3532 443.376 -1.63335 401.016 34.1797Z" fill="#0085FF"/>
</svg>
